<svg width="50" height="40" fill="none" xmlns="http://www.w3.org/2000/svg"><path d="M30.625 40v-3.75h7.5c.875 0 1.615-.302 2.219-.906.604-.604.906-1.344.906-2.219v-6.25c0-1.542.469-2.917 1.406-4.125a7.168 7.168 0 013.594-2.5v-.5c-1.458-.417-2.656-1.24-3.594-2.469a6.68 6.68 0 01-1.406-4.156v-6.25c0-.875-.302-1.615-.906-2.219-.604-.604-1.344-.906-2.219-.906h-7.5V0h7.5C40.042 0 41.667.667 43 2c1.333 1.333 2 2.958 2 4.875v6.25c0 .875.302 1.615.906 2.219.604.604 1.344.906 2.219.906H50v7.5h-1.875c-.875 0-1.615.302-2.219.906C45.302 25.26 45 26 45 26.875v6.25c0 1.917-.667 3.542-2 4.875-1.333 1.333-2.958 2-4.875 2h-7.5zm-18.75 0C9.958 40 8.333 39.333 7 38c-1.333-1.333-2-2.958-2-4.875v-6.25c0-.875-.302-1.615-.906-2.219-.604-.604-1.344-.906-2.219-.906H0v-7.5h1.875c.875 0 1.615-.302 2.219-.906C4.698 14.74 5 14 5 13.125v-6.25C5 4.958 5.667 3.333 7 2 8.333.667 9.958 0 11.875 0h7.5v3.75h-7.5c-.875 0-1.615.302-2.219.906C9.052 5.26 8.75 6 8.75 6.875v6.25a6.679 6.679 0 01-1.406 4.156c-.938 1.23-2.136 2.052-3.594 2.469v.5a7.167 7.167 0 013.594 2.5c.937 1.208 1.406 2.583 1.406 4.125v6.25c0 .875.302 1.615.906 2.219.604.604 1.344.906 2.219.906h7.5V40h-7.5z" fill="#000"/></svg>