<svg width="45" height="46" fill="none" xmlns="http://www.w3.org/2000/svg"><path d="M0 45.5v-3.75h39.938v3.75H0zM9.438 38c-2.626 0-4.855-.906-6.688-2.719C.917 33.47 0 31.25 0 28.625V.5h41.25c1.042 0 1.927.365 2.656 1.094C44.636 2.323 45 3.208 45 4.25v10c0 1.042-.365 1.927-1.094 2.656-.729.73-1.614 1.094-2.656 1.094h-6v10.625c0 2.625-.917 4.844-2.75 6.656C30.667 37.094 28.437 38 25.812 38H9.438zm0-3.75h16.374c1.5 0 2.823-.573 3.97-1.719 1.145-1.146 1.718-2.448 1.718-3.906V4.25H3.75v24.375c0 1.458.583 2.76 1.75 3.906 1.167 1.146 2.48 1.719 3.938 1.719zm25.812-20h6v-10h-6v10z" fill="#000"/></svg>