<svg width="26" height="50" fill="none" xmlns="http://www.w3.org/2000/svg"><path d="M.5 0h25v20.813c0 .958-.24 1.833-.719 2.625a5.658 5.658 0 01-1.968 1.937L14 30.5l1.625 6.063H24l-6.813 5.062L19.813 50 13 44.937 6.125 50l2.625-8.375-6.813-5.063h8.438l1.563-6.062-8.75-5.125a5.658 5.658 0 01-1.97-1.938A4.973 4.973 0 01.5 20.813V0zm3.75 3.75v17.063c0 .291.094.562.281.812.188.25.469.48.844.688l6 3.312V3.75H4.25zm17.5 0h-6.625v21.875l5.5-3.313c.375-.208.656-.437.844-.687.187-.25.281-.52.281-.813V3.75z" fill="#000"/></svg>